<svg xmlns="http://www.w3.org/2000/svg" xmlns:xlink="http://www.w3.org/1999/xlink" id="Capa_1" x="0px" y="0px" viewBox="0 0 512 512" style="enable-background:new 0 0 512 512;" xml:space="preserve">
<style type="text/css">
	.st0{fill:#BA9F65;}
</style>
<g>
	<path class="st0" d="M153.4,48.8v82.5h-30.9V48.8H153.4z M98.3,195.5c12.4-10.8,24.2-21.1,24.2-43.7h30.9   c0,22.6,11.7,32.8,24.2,43.7c15.2,13.2,17.1,16.2,17.1,49.1h20.6c0-35.3-2.2-45.5-24.2-64.7c-12.1-10.6-17.1-15.4-17.1-28.1V48.8   c0-11.4-9.3-20.6-20.6-20.6h-30.9c-11.4,0-20.6,9.3-20.6,20.6v103.1c0,12.7-4.9,17.5-17.1,28.1c-21.9,19.1-24.2,29.3-24.2,64.7   h20.6C81.2,211.7,83.1,208.8,98.3,195.5z"></path>
	<path class="st0" d="M400.9,48.8v82.5h-30.9V48.8H400.9z M369.9,151.9h30.9c0,22.6,11.7,32.8,24.2,43.7   c15.2,13.2,17.1,16.2,17.1,49.1h20.6c0-35.3-2.2-45.5-24.2-64.7c-12.1-10.6-17.1-15.4-17.1-28.1V48.8c0-11.4-9.3-20.6-20.6-20.6   h-30.9c-11.4,0-20.6,9.3-20.6,20.6v103.1c0,10.8-3.5,15.7-11.7,23.4l14,15.2C362.9,179.9,369.9,169.9,369.9,151.9z"></path>
	<path class="st0" d="M277.1,48.8v82.5h-30.9V48.8H277.1z M246.2,151.9h30.9c0,22.6,11.7,32.8,24.2,43.7   c15.2,13.2,17.1,16.2,17.1,49.1H339c0-35.3-2.2-45.5-24.2-64.7c-12.1-10.6-17.1-15.4-17.1-28.1V48.8c0-11.4-9.3-20.6-20.6-20.6   h-30.9c-11.4,0-20.6,9.3-20.6,20.6v103.1c0,10.8-3.5,15.7-11.7,23.4l14,15.2C239.2,179.9,246.2,169.9,246.2,151.9z"></path>
	<polygon class="st0" points="9,255 9,358.1 29.6,358.1 29.6,275.6 483.4,275.6 483.4,358.1 504,358.1 504,255  "></polygon>
	<polygon class="st0" points="483.4,461.2 29.6,461.2 29.6,378.8 9,378.8 9,481.9 504,481.9 504,378.8 483.4,378.8  "></polygon>
	<rect x="39.9" y="358.1" class="st0" width="433.1" height="20.6"></rect>
	<rect x="50.2" y="306.6" class="st0" width="20.6" height="20.6"></rect>
	<rect x="442.1" y="306.6" class="st0" width="20.6" height="20.6"></rect>
	<rect x="50.2" y="409.7" class="st0" width="20.6" height="20.6"></rect>
	<rect x="442.1" y="409.7" class="st0" width="20.6" height="20.6"></rect>
</g>
</svg>