<svg xmlns="http://www.w3.org/2000/svg" xmlns:xlink="http://www.w3.org/1999/xlink" id="Capa_1" x="0px" y="0px" viewBox="0 0 512 512" style="enable-background:new 0 0 512 512;" xml:space="preserve">
<style type="text/css">
	.st0{fill:#BA9F65;}
</style>
<path class="st0" d="M446.5,91.4c0,11.6-9.5,21.1-21.1,21.1h-10.6c-13.1,0-13.1,0-21.4-13.9l-1.2-2.1c-1.9-3.2-5.3-5.1-9-5.1  c-3.7,0-7.1,2-9,5.1c-5.2,8.6-51.6,16-85.9,16h-63.3c-34.4,0-80.8-7.4-85.9-16c-3.8-6.4-14.3-6.4-18.1,0l-1.2,2.1  c-8.3,13.9-8.3,13.9-21.4,13.9H87.6c-11.6,0-21.1-9.5-21.1-21.1V49.2c0-11.6,9.5-21.1,21.1-21.1h10.6c13.1,0,13.1,0,21.1,13.4  l1.5,2.6c3.8,6.4,14.3,6.4,18.1,0c5.2-8.6,51.6-16,85.9-16h63.3c34.4,0,80.8,7.4,85.9,16c3.8,6.4,14.3,6.4,18.1,0l1.5-2.6  c8-13.4,8-13.4,21.1-13.4h10.6c11.6,0,21.1,9.5,21.1,21.1V91.4z M425.4,7h-10.6c-20,0-26.8,4.7-34.3,15.9C352.2,7.2,291.2,7,288.2,7  h-63.3c-3.1,0-64,0.2-92.3,15.9C125,11.7,118.1,7,98.2,7H87.6C64.4,7,45.4,25.9,45.4,49.2v42.2c0,23.3,18.9,42.2,42.2,42.2h10.6  c19.8,0,26.8-4.7,34.3-15.9c28.3,15.7,89.3,15.9,92.3,15.9h21.1v101.2l-18,18c-2.2,2.2-3.3,5.2-3.1,8.2c0.2,3.1,1.8,5.9,4.2,7.7  l31,23.2l-31,23.2c-2.7,2-4.2,5.1-4.2,8.4s1.6,6.4,4.2,8.4l31,23.2l-31,23.2c-2.7,2-4.2,5.1-4.2,8.4c0,3.3,1.6,6.4,4.2,8.4l31,23.2  l-31,23.2c-2.4,1.8-4,4.6-4.2,7.7c-0.2,3.1,0.9,6,3.1,8.2l18,18v16.7c0,5.8,4.7,10.6,10.6,10.6s10.6-4.7,10.6-10.6v-21.1  c0-2.8-1.1-5.5-3.1-7.5l-12.5-12.5l32.5-24.3c2.7-2,4.2-5.1,4.2-8.4c0-3.3-1.6-6.5-4.2-8.4l-31-23.2l31-23.2c2.7-2,4.2-5.1,4.2-8.4  c0-3.3-1.6-6.5-4.2-8.5l-31-23.2l31-23.2c2.7-2,4.2-5.1,4.2-8.4c0-3.3-1.6-6.4-4.2-8.4l-32.5-24.4l12.5-12.5c2-2,3.1-4.7,3.1-7.5  V133.6h21.1c3,0,64.1-0.2,92.3-15.9c7.6,11.2,14.6,15.9,34.3,15.9h10.6c23.3,0,42.2-18.9,42.2-42.2V49.2C467.6,25.9,448.6,7,425.4,7  z"></path>
</svg>