<?xml version="1.0" encoding="utf-8"?>
<!-- Generator: Adobe Illustrator 25.2.0, SVG Export Plug-In . SVG Version: 6.00 Build 0)  -->
<svg version="1.1" id="Capa_1" xmlns="http://www.w3.org/2000/svg" xmlns:xlink="http://www.w3.org/1999/xlink" x="0px" y="0px"
	 viewBox="0 0 512 512" style="enable-background:new 0 0 512 512;" xml:space="preserve">
<style type="text/css">
	.st0{fill:#BA9F65;}
</style>
<g>
	<path class="st0" d="M256.5,3.5C117.8,3.5,5,116.3,5,255s112.8,251.5,251.5,251.5S508,393.7,508,255S395.2,3.5,256.5,3.5z
		 M256.5,488.8C127.6,488.8,22.7,383.9,22.7,255S127.6,21.2,256.5,21.2S490.3,126.1,490.3,255S385.4,488.8,256.5,488.8z"/>
	<path class="st0" d="M269,185.1c0-3.5,0.2-6.2,0.5-8.1c0.3-1.9,1.1-3.8,2.2-5.7c1.1-1.9,3-3.1,5.6-3.9c2.6-0.7,6-1.1,10.3-1.1h23.3
		v-46.6h-37.3c-21.6,0-37,5.1-46.5,15.3c-9.4,10.2-14.1,25.3-14.1,45.2v28.1h-27.9V255h27.9v135.2h56V255h37.3l4.9-46.6H269V185.1z"
		/>
</g>
</svg>
