<?xml version="1.0" encoding="utf-8"?>
<!-- Generator: Adobe Illustrator 25.2.0, SVG Export Plug-In . SVG Version: 6.00 Build 0)  -->
<svg version="1.1" id="Capa_1" xmlns="http://www.w3.org/2000/svg" xmlns:xlink="http://www.w3.org/1999/xlink" x="0px" y="0px"
	 viewBox="0 0 512 512" style="enable-background:new 0 0 512 512;" xml:space="preserve">
<style type="text/css">
	.st0{fill:#BA9F65;}
</style>
<g>
	<path class="st0" d="M256.5,2.5C117.3,2.5,4,115.8,4,255s113.3,252.5,252.5,252.5S509,394.2,509,255S395.7,2.5,256.5,2.5z
		 M256.5,489.7C127.1,489.7,21.8,384.4,21.8,255S127.1,20.3,256.5,20.3S491.2,125.6,491.2,255S385.9,489.7,256.5,489.7z"/>
	<path class="st0" d="M396.3,158.5c-3.7-9.9-9.5-18.8-17.1-26.2c-7.4-7.5-16.3-13.3-26.1-17c-9.4-3.6-20.1-6.2-35.8-6.9
		c-15.8-0.8-20.8-0.9-60.8-0.9s-45.1,0.2-60.8,0.9c-15.7,0.7-26.4,3.2-35.8,6.9c-9.9,3.7-18.8,9.5-26.2,17.1
		c-7.5,7.4-13.3,16.3-17,26.1c-3.6,9.4-6.2,20.1-6.9,35.8c-0.7,15.8-0.9,20.8-0.9,60.8c0,40,0.2,45,0.9,60.8
		c0.7,15.7,3.2,26.4,6.9,35.8c3.7,9.9,9.6,18.8,17.1,26.2c7.4,7.5,16.3,13.3,26.1,17c9.4,3.6,20.1,6.2,35.8,6.9
		c15.7,0.7,20.7,0.9,60.8,0.9s45.1-0.2,60.8-0.9c15.7-0.7,26.4-3.2,35.8-6.9c19.8-7.7,35.5-23.3,43.2-43.1
		c3.6-9.4,6.2-20.1,6.9-35.8c0.7-15.7,0.9-20.7,0.9-60.8c0-40-0.1-45.1-0.7-60.8C402.5,178.6,399.9,167.8,396.3,158.5z M376.6,314.7
		c-0.6,14.4-3.1,22.2-5.1,27.4c-5,12.9-15.2,23-28,28c-5.2,2-13,4.4-27.4,5.1c-15.6,0.7-20.2,0.9-59.6,0.9s-44.1-0.2-59.6-0.9
		c-14.4-0.6-22.2-3.1-27.4-5.1c-6.4-2.4-12.2-6.1-16.9-11c-4.9-4.8-8.6-10.5-11-16.9c-2-5.2-4.4-13-5.1-27.4
		c-0.7-15.6-0.9-20.2-0.9-59.6s0.2-44.1,0.9-59.6c0.6-14.4,3.1-22.2,5.1-27.4c2.4-6.4,6.1-12.2,11.1-16.9c4.8-4.9,10.5-8.6,16.9-11
		c5.2-2,13-4.4,27.4-5.1c15.6-0.7,20.2-0.9,59.6-0.9c39.4,0,44.1,0.2,59.6,0.9c14.4,0.6,22.2,3.1,27.4,5.1c6.4,2.4,12.2,6.1,16.9,11
		c4.9,4.8,8.6,10.5,11,16.9c2,5.2,4.4,13,5.1,27.4c0.7,15.6,0.9,20.2,0.9,59.6S377.3,299.1,376.6,314.7z"/>
	<path class="st0" d="M256.6,179.3c-41.8,0-75.8,33.9-75.8,75.8c0,41.8,33.9,75.8,75.8,75.8c41.8,0,75.8-33.9,75.8-75.8
		C332.3,213.2,298.4,179.3,256.6,179.3z M256.6,304.2c-27.1,0-49.1-22-49.1-49.1c0-27.1,22-49.1,49.1-49.1c27.1,0,49.1,22,49.1,49.1
		C305.7,282.2,283.7,304.2,256.6,304.2z"/>
	<path class="st0" d="M335.3,158.6c-9.8,0-17.7,7.9-17.7,17.7c0,9.8,7.9,17.7,17.7,17.7c9.8,0,17.7-7.9,17.7-17.7
		C353,166.5,345.1,158.6,335.3,158.6z"/>
</g>
</svg>
