<?xml version="1.0" encoding="utf-8"?>
<!-- Generator: Adobe Illustrator 25.2.0, SVG Export Plug-In . SVG Version: 6.00 Build 0)  -->
<svg version="1.1" id="Capa_1" xmlns="http://www.w3.org/2000/svg" xmlns:xlink="http://www.w3.org/1999/xlink" x="0px" y="0px"
	 viewBox="0 0 512 512" style="enable-background:new 0 0 512 512;" xml:space="preserve">
<style type="text/css">
	.st0{fill:#BA9F65;}
</style>
<g>
	<path class="st0" d="M256.5,6.5C119.5,6.5,8,118,8,255s111.5,248.5,248.5,248.5S505,392,505,255S393.5,6.5,256.5,6.5z M256.5,486
		c-127.4,0-231-103.6-231-231s103.6-231,231-231s231,103.6,231,231S383.9,486,256.5,486z"/>
	<path class="st0" d="M386.4,174.2c12.4-7.4,21.8-19,26.2-33c-11.5,6.9-24.2,11.7-37.8,14.4c-10.9-11.7-26.5-18.9-43.5-18.9
		c-33,0-59.6,26.8-59.6,59.6c0,4.7,0.4,9.3,1.4,13.6c-49.6-2.4-93.4-26.2-122.9-62.4c-5.1,8.9-8.2,19.1-8.2,30.1
		c0,20.6,10.6,38.9,26.5,49.5c-9.6-0.2-19-3-26.9-7.3c0,0.2,0,0.4,0,0.7c0,29,20.7,53,47.8,58.6c-4.9,1.3-10.1,2-15.6,2
		c-3.8,0-7.7-0.2-11.3-1c7.7,23.6,29.6,41,55.7,41.5c-20.3,15.9-46,25.4-73.9,25.4c-4.9,0-9.6-0.2-14.3-0.8
		c26.4,17,57.7,26.8,91.5,26.8c109.7,0,169.7-90.9,169.7-169.7c0-2.6-0.1-5.2-0.2-7.7c11.8-8.4,21.8-18.9,29.9-31
		C409.9,169.6,398.4,172.7,386.4,174.2z"/>
</g>
</svg>
