<svg xmlns="http://www.w3.org/2000/svg" xmlns:xlink="http://www.w3.org/1999/xlink" id="Capa_1" x="0px" y="0px" viewBox="0 0 512 512" style="enable-background:new 0 0 512 512;" xml:space="preserve">
<style type="text/css">
	.st0{fill:#BA9F65;}
</style>
<path class="st0" d="M323.9,480.8c-0.4-0.9-0.6-1.8-0.8-2.8c-0.5-3.1,0.4-6.2,2.4-8.6c19.9-24.1,28.9-37.2,33.2-44.5h0.1  c8.5,0,24.3-1.3,55-6.5c3.1-0.5,6.2,0.3,8.7,2.2c0.8,0.6,1.4,1.3,2,2.1L323.9,480.8z M232.9,291.5c-8.7,1.5-17.7,3-26.8,2.9  c-26.5-0.3-45.7-12.3-60.5-37.8c-18.5-32-32.9-80.4-45.7-123c-3.7-12.5-7.3-24.5-10.8-35.3c9.4-8.8,31.3-28.1,56.1-42.9  c25.6-14.3,54.3-24.1,66.9-28.1c7.7,8.4,16.2,17.5,25.2,27c28.5,30.1,60.3,63.9,79.5,94.3H136.4v22.3h189.8v-5.4  c9.5,21.5,8.7,41.2-2.6,61.1c-4.5,8-10.5,15.2-16.4,22.1c-10.6,12.6-22.2,26.4-23.7,45.5C266.3,285.8,248.9,288.8,232.9,291.5z   M449,427.2c-0.6-9.4-5.1-18.2-12.5-24.1c-7.4-5.9-17-8.4-26.3-6.8c-31.5,5.3-45.5,6.2-51.4,6.2L311.6,321  c-13-27.3-2.8-39.5,12.7-57.9c6.2-7.3,13.1-15.6,18.7-25.5c16.8-29.8,16-61.2-2.6-93.4c-19.8-34.3-55.4-72-86.8-105.2  c-10.7-11.3-20.8-22-29.5-31.8L219.4,2l-6.7,1.9c-1.7,0.5-42.1,11.8-78.6,32.2C98.4,57.3,69.7,85.9,68.5,87.2L63.6,92l2.2,6.5  c4.1,12.4,8.3,26.5,12.8,41.5c13.1,43.9,27.9,93.6,47.7,127.8c18.6,32.2,45.4,48.7,79.6,49c11.2,0,21.5-1.7,30.8-3.3  c23.9-4.1,38.5-6.6,55.6,18.5l47.1,81.6c-3,5.2-10.7,16.9-31.1,41.5c-6,7.3-8.7,16.8-7.3,26.2s6.7,17.7,14.6,22.9l5.8,3.8l128-73.9  L449,427.2z"></path>
</svg>